<?xml version="1.0" encoding="UTF-8" standalone="no"?>
<!DOCTYPE svg PUBLIC "-//W3C//DTD SVG 1.1//EN" "http://www.w3.org/Graphics/SVG/1.1/DTD/svg11.dtd">
<svg width="100%" height="100%" viewBox="0 0 2653 1734" version="1.1" xmlns="http://www.w3.org/2000/svg" xmlns:xlink="http://www.w3.org/1999/xlink" xml:space="preserve" xmlns:serif="http://www.serif.com/" style="fill-rule:evenodd;clip-rule:evenodd;stroke-linecap:round;stroke-linejoin:round;stroke-miterlimit:1.5;">
    <g transform="matrix(1,0,0,1,133.4,49.6777)">
        <g transform="matrix(1,0,0,1,138.634,-610.366)">
            <g transform="matrix(0.735054,0,0,0.823896,-500.236,462.221)">
                <path d="M820,251.906L565.5,120L311,251.906L311,514.89L565.5,646L820,513.914L820,251.906Z" style="fill:none;stroke:rgb(22,41,142);stroke-opacity:0.44;stroke-width:1.02px;"/>
            </g>
        </g>
        <g transform="matrix(1,0,0,1,138.634,-610.366)">
            <g transform="matrix(0.735054,0,0,0.823896,-313.165,786.526)">
                <path d="M820,251.906L565.5,120L311,251.906L311,514.89L565.5,646L820,513.914L820,251.906Z" style="fill:none;stroke:rgb(22,41,142);stroke-opacity:0.44;stroke-width:1.02px;"/>
            </g>
        </g>
        <g transform="matrix(1,0,0,1,138.634,-610.366)">
            <g transform="matrix(0.735054,0,0,0.823896,1402.76,1761.55)">
                <path d="M820,251.906L565.5,120L311,251.906L311,514.89L565.5,646L820,513.914L820,251.906Z" style="fill:none;stroke:rgb(22,41,142);stroke-opacity:0.44;stroke-width:1.02px;"/>
            </g>
        </g>
        <g transform="matrix(1,0,0,1,138.634,-610.366)">
            <g transform="matrix(0.735054,0,0,0.823896,1776.91,1111.5)">
                <path d="M820,251.906L565.5,120L311,251.906L311,514.89L565.5,646L820,513.914L820,251.906Z" style="fill:none;stroke:rgb(22,41,142);stroke-opacity:0.44;stroke-width:1.02px;"/>
            </g>
        </g>
        <g transform="matrix(1,0,0,1,138.634,-610.366)">
            <g transform="matrix(0.735054,0,0,0.823896,1776.91,1761.55)">
                <path d="M820,251.906L565.5,120L311,251.906L311,514.89L565.5,646L820,513.914L820,251.906Z" style="fill:none;stroke:rgb(22,41,142);stroke-opacity:0.44;stroke-width:1.02px;"/>
            </g>
        </g>
        <g transform="matrix(1,0,0,1,138.634,-610.366)">
            <g transform="matrix(0.735054,0,0,0.823896,-500.236,1111.55)">
                <path d="M820,251.906L565.5,120L311,251.906L311,514.89L565.5,646L820,513.914L820,251.906Z" style="fill:none;stroke:rgb(22,41,142);stroke-opacity:0.44;stroke-width:1.02px;"/>
            </g>
        </g>
        <g transform="matrix(1,0,0,1,138.634,-610.366)">
            <g transform="matrix(0.735054,0,0,0.823896,1589.84,1436.53)">
                <path d="M820,251.906L565.5,120L311,251.906L311,514.89L565.5,646L820,513.914L820,251.906Z" style="fill:none;stroke:rgb(22,41,142);stroke-opacity:0.44;stroke-width:1.02px;"/>
            </g>
        </g>
    </g>
</svg>
