<?xml version="1.0" encoding="UTF-8" standalone="no"?>
<!DOCTYPE svg PUBLIC "-//W3C//DTD SVG 1.1//EN" "http://www.w3.org/Graphics/SVG/1.1/DTD/svg11.dtd">
<svg width="100%" height="100%" viewBox="0 0 2653 1734" version="1.1" xmlns="http://www.w3.org/2000/svg" xmlns:xlink="http://www.w3.org/1999/xlink" xml:space="preserve" xmlns:serif="http://www.serif.com/" style="fill-rule:evenodd;clip-rule:evenodd;stroke-linecap:round;stroke-linejoin:round;stroke-miterlimit:1.5;">
    <g transform="matrix(1,0,0,1,133.4,49.6777)">
        <g transform="matrix(1,0,0,1,138.634,-610.366)">
            <g transform="matrix(0.735054,0,0,0.823896,-500.236,462.221)">
                <path d="M820,251.906L565.5,120L311,251.906L311,514.89L565.5,646L820,513.914L820,251.906Z" style="fill:none;stroke:rgb(22,41,142);stroke-opacity:0.44;stroke-width:1.02px;"/>
            </g>
        </g>
        <g transform="matrix(1,0,0,1,138.634,-610.366)">
            <g transform="matrix(0.735054,0,0,0.823896,-313.165,786.526)">
                <path d="M820,251.906L565.5,120L311,251.906L311,514.89L565.5,646L820,513.914L820,251.906Z" style="fill:none;stroke:rgb(22,41,142);stroke-opacity:0.44;stroke-width:1.02px;"/>
            </g>
        </g>
        <g transform="matrix(1,0,0,1,138.634,-610.366)">
            <g transform="matrix(0.735054,0,0,0.823896,1402.76,1761.55)">
                <path d="M820,251.906L565.5,120L311,251.906L311,514.89L565.5,646L820,513.914L820,251.906Z" style="fill:none;stroke:rgb(22,41,142);stroke-opacity:0.44;stroke-width:1.02px;"/>
            </g>
        </g>
        <g transform="matrix(1,0,0,1,138.634,-610.366)">
            <g transform="matrix(0.735054,0,0,0.823896,1776.91,1111.5)">
                <path d="M820,251.906L565.5,120L311,251.906L311,514.89L565.5,646L820,513.914L820,251.906Z" style="fill:none;stroke:rgb(22,41,142);stroke-opacity:0.44;stroke-width:1.02px;"/>
            </g>
        </g>
        <g transform="matrix(1,0,0,1,138.634,-610.366)">
            <g transform="matrix(0.735054,0,0,0.823896,1776.91,1761.55)">
                <path d="M820,251.906L565.5,120L311,251.906L311,514.89L565.5,646L820,513.914L820,251.906Z" style="fill:none;stroke:rgb(22,41,142);stroke-opacity:0.44;stroke-width:1.02px;"/>
            </g>
        </g>
        <g transform="matrix(1,0,0,1,138.634,-610.366)">
            <g transform="matrix(0.735054,0,0,0.823896,-500.236,1111.55)">
                <path d="M820,251.906L565.5,120L311,251.906L311,514.89L565.5,646L820,513.914L820,251.906Z" style="fill:none;stroke:rgb(22,41,142);stroke-opacity:0.44;stroke-width:1.02px;"/>
            </g>
        </g>
        <g transform="matrix(1,0,0,1,138.634,-610.366)">
            <g transform="matrix(0.735054,0,0,0.823896,1589.84,1436.53)">
                <path d="M820,251.906L565.5,120L311,251.906L311,514.89L565.5,646L820,513.914L820,251.906Z" style="fill:none;stroke:rgb(22,41,142);stroke-opacity:0.44;stroke-width:1.02px;"/>
            </g>
        </g>
        <g transform="matrix(1,0,0,1,138.634,-610.366)">
            <g transform="matrix(0.151169,0,0,0.151169,102.508,1751.33)">
                <g transform="matrix(1,0,0,1,-1237.5,-1422)">
                    <g transform="matrix(1,0,0,1,56.25,-147.75)">
                        <g transform="matrix(4.73388,0,0,4.73388,-6603.76,-3625.7)">
                            <g>
                                <path d="M1894,954L1643.98,809L1395,954L1395,1245L1643.98,1386L1894,1245L1894,954Z" style="fill:rgb(119,59,59);stroke:black;stroke-width:23.76px;"/>
                            </g>
                        </g>
                        <g transform="matrix(1.68364,0,0,0.988995,12.519,-370.422)">
                            <path d="M650.148,2449.99C650.148,2369.66 654.487,2298.32 663.166,2235.99C671.845,2173.66 682.693,2116.41 695.711,2064.24C708.729,2012.07 722.697,1963.13 737.613,1917.42C752.53,1871.71 766.497,1825.54 779.515,1778.91C792.533,1732.28 803.382,1683.1 812.061,1631.39C820.739,1579.68 825.079,1521.51 825.079,1456.87C825.079,1396.85 820.739,1344.68 812.061,1300.35C803.382,1256.03 791.177,1219.09 775.447,1189.55C759.717,1160 741.139,1137.83 719.713,1123.06C698.288,1108.29 675.099,1100.9 650.148,1100.9C627.909,1100.9 607.432,1105.28 588.719,1114.06C570.005,1122.83 553.868,1135.3 540.308,1151.45C526.747,1167.61 516.17,1186.54 508.576,1208.24C500.982,1229.94 497.185,1253.26 497.185,1278.19C497.185,1304.97 499.897,1326.67 505.322,1343.29C510.746,1359.91 516.577,1375.15 522.815,1389C529.052,1402.85 534.884,1416.93 540.308,1431.25C545.732,1445.56 548.444,1463.8 548.444,1485.96C548.444,1524.74 542.206,1555.44 529.731,1578.07C517.255,1600.69 502.067,1612 484.167,1612C471.691,1612 460.165,1607.15 449.588,1597.46C439.011,1587.76 429.925,1574.14 422.331,1556.6C414.737,1539.05 408.635,1518.05 404.024,1493.58C399.414,1469.11 397.109,1442.56 397.109,1413.93C397.109,1339.14 406.059,1275.65 423.958,1223.48C441.858,1171.31 464.776,1128.83 492.71,1096.05C520.645,1063.27 551.834,1039.26 586.278,1024.02C620.722,1008.79 654.487,1001.17 687.575,1001.17C731.511,1001.17 772.057,1011.1 809.213,1030.95C846.369,1050.8 878.372,1079.43 905.221,1116.83C932.071,1154.22 953.09,1199.93 968.278,1253.95C983.466,1307.97 991.059,1368.68 991.059,1436.09C991.059,1502.58 983.601,1564.22 968.685,1621.01C953.768,1677.79 935.054,1732.28 912.544,1784.45C890.034,1836.62 865.625,1887.87 839.317,1938.19C813.01,1988.52 788.601,2040 766.09,2092.63C743.58,2145.27 724.866,2200.9 709.95,2259.54C695.033,2318.18 687.575,2381.66 687.575,2449.99L650.148,2449.99ZM675.371,2618.97C687.304,2618.97 698.695,2623.13 709.543,2631.44C720.391,2639.75 729.748,2650.83 737.613,2664.68C745.478,2678.53 751.716,2694.69 756.327,2713.16C760.937,2731.63 763.243,2751.02 763.243,2771.34C763.243,2792.57 760.937,2812.2 756.327,2830.2C751.716,2848.21 745.478,2864.14 737.613,2877.99C729.748,2891.84 720.391,2902.69 709.543,2910.54C698.695,2918.39 687.304,2922.31 675.371,2922.31C662.895,2922.31 651.233,2918.39 640.384,2910.54C629.536,2902.69 620.044,2891.84 611.907,2877.99C603.771,2864.14 597.398,2848.21 592.787,2830.2C588.176,2812.2 585.871,2792.57 585.871,2771.34C585.871,2751.02 588.176,2731.63 592.787,2713.16C597.398,2694.69 603.771,2678.53 611.907,2664.68C620.044,2650.83 629.536,2639.75 640.384,2631.44C651.233,2623.13 662.895,2618.97 675.371,2618.97Z" style="fill:white;fill-rule:nonzero;stroke:black;stroke-width:20.28px;stroke-linecap:butt;stroke-miterlimit:2;"/>
                        </g>
                    </g>
                </g>
            </g>
        </g>
    </g>
</svg>
